<svg width="50" height="30" viewBox="0 0 50 30" fill="none" xmlns="http://www.w3.org/2000/svg">
<rect width="50" height="30" fill="#F8F9FA"/>
<g clip-path="url(#clip0_16_78)">
<path d="M42.2254 12.6641C42.0718 12.7983 42.0168 12.9613 42 13.026V13.7378C42.0193 13.6826 42.1341 13.3543 42.453 13.2393C42.5488 13.2057 42.6373 13.1985 42.7069 13.2009V12.4844C42.6471 12.4844 42.4217 12.4916 42.2254 12.6641Z" fill="#00966C"/>
<path d="M47.9987 16.3777V12.2581C47.9987 12.1933 47.9437 12.1406 47.8789 12.1406H47.577C47.5122 12.1406 47.4594 12.1933 47.4594 12.2581V14.8367C47.0595 14.3622 46.4961 14.113 45.8275 14.113C45.1589 14.113 44.6221 14.343 44.2146 14.7768C43.8264 15.1914 43.6133 15.7618 43.6133 16.3873C43.6133 17.0128 43.8169 17.5448 44.1883 17.9594C44.5908 18.4075 45.1446 18.6448 45.794 18.6448C46.3235 18.6448 46.7791 18.5058 47.148 18.2278C47.9772 17.6071 48.0035 16.579 48.0013 16.3801L47.9987 16.3777ZM47.4572 16.3873C47.4572 16.8809 47.3134 17.3243 47.0497 17.6358C46.7598 17.9809 46.3308 18.1631 45.8082 18.1631C44.7277 18.1631 44.1428 17.2476 44.1428 16.3873C44.1428 15.8936 44.2889 15.4454 44.5525 15.1267C44.845 14.7744 45.2692 14.5875 45.782 14.5875C46.2948 14.5875 46.707 14.772 47.0137 15.1243C47.2991 15.4502 47.4547 15.9008 47.4547 16.3897L47.4572 16.3873Z" fill="#53565A"/>
<path d="M41.2773 14.4096C41.2678 14.3784 41.2438 14.3496 41.215 14.3353C40.9201 14.1915 40.5894 14.1172 40.2324 14.1172C39.9688 14.1172 39.3504 14.1172 38.8759 14.5533C38.3726 15.0135 38.3416 15.6677 38.3438 15.857V15.8618V18.5292C38.3438 18.5939 38.3966 18.6466 38.4614 18.6466H38.7633C38.8279 18.6466 38.8807 18.5939 38.8807 18.5292V15.8618C38.8807 15.8618 38.8807 15.8594 38.8807 15.857V15.8523C38.8807 15.6965 38.9072 15.1669 39.3264 14.8337C39.6356 14.5893 39.995 14.5893 40.1891 14.5893C40.5296 14.5893 40.805 14.6923 40.9754 14.7786C41.0329 14.8074 41.1021 14.7858 41.1334 14.7307L41.2653 14.503C41.282 14.4743 41.2868 14.4407 41.2773 14.4071V14.4096Z" fill="#53565A"/>
<path d="M42.5052 14.1094H42.2032C42.1384 14.1094 42.0859 14.1619 42.0859 14.2268V18.5262C42.0859 18.591 42.1384 18.6436 42.2032 18.6436H42.5052C42.5702 18.6436 42.6227 18.591 42.6227 18.5262V14.2268C42.6227 14.1619 42.5702 14.1094 42.5052 14.1094Z" fill="#53565A"/>
<path d="M37.3524 15.4062H35.2122C35.1524 15.4062 35.1044 15.4541 35.1044 15.514V15.84C35.1044 15.8999 35.1524 15.9478 35.2122 15.9478H36.8084C36.8684 15.9478 36.9162 15.9957 36.9162 16.0556V17.98C36.9162 18.0304 36.8802 18.0759 36.8299 18.0879C36.3961 18.1862 35.9576 18.2149 35.5214 18.1694C35.1069 18.1262 34.1364 18.028 33.4867 17.3426C32.7318 16.5445 32.4346 15.0036 33.2784 13.9084C33.6906 13.3715 34.3087 13.024 35.0206 12.933C35.742 12.8395 36.4609 13.0192 37.0528 13.4434C37.1008 13.4794 37.1703 13.4698 37.2061 13.4219L37.4027 13.1678C37.441 13.1199 37.4315 13.048 37.3812 13.0121C36.6743 12.5016 35.8138 12.2835 34.9486 12.3962C34.0931 12.5064 33.3479 12.9282 32.8469 13.58C31.8308 14.9029 32.183 16.7578 33.0913 17.7188C33.8797 18.5504 34.9919 18.6655 35.4664 18.7134C35.6197 18.7278 35.773 18.7373 35.9241 18.7373C36.3721 18.7373 36.8229 18.6703 37.2636 18.5384L37.3787 18.5025C37.4242 18.4881 37.4555 18.4474 37.4555 18.3995V15.5164C37.4555 15.4565 37.4075 15.4086 37.3477 15.4086L37.3524 15.4062Z" fill="#53565A"/>
<path d="M30.6966 14.8098C30.2964 14.3568 29.7429 14.1172 29.0933 14.1172C28.4438 14.1172 27.8879 14.3472 27.4804 14.781C27.0922 15.1956 26.8789 15.766 26.8789 16.3915C26.8789 17.017 27.0826 17.549 27.4541 17.9636C27.8567 18.4117 28.4103 18.649 29.0597 18.649C29.7549 18.649 30.3322 18.4022 30.7277 17.9348C31.0729 17.5274 31.2645 16.9762 31.2645 16.3843C31.2645 15.7923 31.0634 15.2268 30.6966 14.8122V14.8098ZM30.7229 16.3915C30.7229 16.8852 30.5791 17.3285 30.3154 17.6401C30.0255 17.9852 29.5965 18.1673 29.0741 18.1673C27.9933 18.1673 27.4085 17.2518 27.4085 16.3915C27.4085 15.8978 27.5547 15.4496 27.8183 15.1309C28.1107 14.7786 28.5349 14.5917 29.0478 14.5917C29.5605 14.5917 29.9727 14.7762 30.2797 15.1285C30.5648 15.4544 30.7207 15.905 30.7207 16.3939L30.7229 16.3915Z" fill="#53565A"/>
<path d="M15.7229 12.4329C15.6486 12.2748 15.4856 12.1765 15.3155 12.1885C15.1621 12.1981 15.0255 12.2915 14.9584 12.4329L12.3294 18.4841C12.2983 18.556 12.351 18.6351 12.4301 18.6351H12.7584C12.8015 18.6351 12.8399 18.6088 12.859 18.5704C13.1274 17.9497 13.3982 17.3266 13.6666 16.7059C15.2651 16.7059 15.4185 16.7059 17.017 16.7059C17.2854 17.3266 17.5562 17.9497 17.8246 18.5704C17.8414 18.6112 17.8821 18.6351 17.9253 18.6351H18.2536C18.3327 18.6351 18.3854 18.556 18.3543 18.4841L15.7253 12.4329H15.7229ZM13.8895 16.1907L15.3394 12.8427C15.8235 13.9595 16.3076 15.0787 16.7917 16.1955L13.8872 16.1907H13.8895Z" fill="#53565A"/>
<path d="M26.189 17.8889C26.189 17.8889 26.165 17.8625 26.1315 17.8578C26.0979 17.853 26.074 17.8673 26.0668 17.8721H26.0644C25.5875 18.1645 25.0219 18.1741 24.7151 17.8841C24.5258 17.7068 24.4779 17.4456 24.4659 17.297C24.4659 17.2922 24.4659 17.2874 24.4659 17.285V14.6848H26.1459C26.2321 14.6848 26.304 14.6153 26.304 14.5266C26.3064 14.4978 26.304 14.2965 26.304 14.2965C26.304 14.2102 26.2345 14.1384 26.1459 14.1384H24.4707C24.4707 13.8124 24.4707 13.4841 24.4683 13.1582C24.4683 13.0719 24.3988 13 24.3101 13H24.08C23.9938 13 23.9219 13.0695 23.9219 13.1582V17.2994C23.9219 17.3377 23.9243 17.3928 23.9315 17.4551C23.965 17.7259 24.0729 17.9177 24.116 17.992C24.2622 18.2364 24.4491 18.3682 24.5162 18.4138C24.8158 18.6127 25.1105 18.6294 25.3143 18.639C25.5204 18.6486 25.9925 18.5599 26.3711 18.3203C26.3927 18.3059 26.4023 18.2891 26.4023 18.2891C26.4047 18.2843 26.4095 18.2723 26.4119 18.258C26.4119 18.2364 26.4023 18.222 26.3975 18.2148C26.328 18.1046 26.2585 17.9967 26.189 17.8865V17.8889Z" fill="#53565A"/>
<path d="M23.0488 16.384V14.3542C23.0488 14.2895 22.9937 14.2368 22.929 14.2368H22.627C22.5623 14.2368 22.5096 14.2895 22.5096 14.3542V16.3769C22.5096 16.5326 22.4784 17.3403 21.8314 17.8052C21.563 17.9969 21.237 18.0976 20.8608 18.1024C20.4893 18.1071 20.1682 18.0209 19.9046 17.8435C19.2096 17.3786 19.1976 16.4775 19.1976 16.3745L19.2024 14.3542C19.2024 14.3231 19.1904 14.2919 19.1689 14.2703C19.1473 14.2488 19.1161 14.2344 19.085 14.2344H18.7854C18.7542 14.2344 18.7231 14.2464 18.7015 14.2679C18.6799 14.2895 18.668 14.3206 18.668 14.3518V16.3721C18.668 16.3721 18.668 16.3793 18.668 16.384C18.668 16.3888 18.668 16.3936 18.668 16.3984C18.668 17 18.8717 17.556 19.2431 17.9706C19.6457 18.4187 20.1994 18.656 20.8488 18.656C21.5438 18.656 22.1214 18.4091 22.5168 17.9418C22.8619 17.5344 23.0536 16.9832 23.0536 16.3912C23.0536 16.3888 23.0536 16.384 23.0536 16.3817L23.0488 16.384Z" fill="#53565A"/>
<path d="M6.875 14.9314C7.05475 14.9386 7.28721 14.9242 7.53405 14.8356C8.36564 14.5408 8.66521 13.6828 8.71314 13.5391V15.3916C8.66759 15.5617 8.53099 15.9835 8.12838 16.3334C7.61552 16.7767 7.03076 16.7911 6.875 16.7887C6.875 16.168 6.875 15.5521 6.875 14.9314Z" fill="#00966C"/>
<path d="M8.71484 18.1784C8.8946 18.1856 9.12705 18.1664 9.37389 18.0778C10.2055 17.783 10.5051 16.9251 10.553 16.7812V18.6338C10.5075 18.8039 10.3709 19.2257 9.96823 19.5756C9.45536 20.019 8.87063 20.0333 8.71484 20.0309C8.71484 19.4102 8.71484 18.7991 8.71484 18.1784Z" fill="#FF8200"/>
<path d="M10.553 12.1386C10.3708 12.1314 10.1408 12.1481 9.89394 12.2368C9.06471 12.534 8.76277 13.3848 8.71484 13.5309V11.6856C8.76037 11.5155 8.89937 11.0961 9.29957 10.7486C9.81004 10.3028 10.3924 10.2812 10.5506 10.2812C10.5506 10.8996 10.5506 11.5203 10.5506 12.1386H10.553Z" fill="#FFD100"/>
<path d="M5.03737 15.379C4.85761 15.3718 4.62993 15.4005 4.38549 15.4892C3.56589 15.7864 3.24715 16.6347 3.19922 16.7809C3.19922 16.1626 3.19922 15.5443 3.19922 14.926C3.24715 14.7559 3.40772 14.3437 3.79835 14.001C4.30402 13.56 4.87917 13.5312 5.03737 13.5312C5.03737 14.1495 5.03737 14.7607 5.03737 15.379Z" fill="#FF8200"/>
<path d="M6.8733 18.629C6.69354 18.6218 6.46586 18.6505 6.22143 18.7392C5.40181 19.0364 5.08308 19.8848 5.03516 20.0309C5.03516 19.4126 5.03516 18.7943 5.03516 18.176C5.08308 18.0059 5.24365 17.5937 5.6343 17.251C6.13996 16.81 6.7151 16.7812 6.8733 16.7812C6.8733 17.3995 6.8733 18.0107 6.8733 18.629Z" fill="#FFD100"/>
<path d="M3.19751 16.7809C2.58639 16.3136 1.97049 15.8463 1.35938 15.379V13.5312C1.97288 13.9962 2.584 14.4635 3.19751 14.9284C3.19751 15.5467 3.19751 16.1626 3.19751 16.7809Z" fill="#53565A"/>
<path d="M6.8733 14.9372C6.26218 14.4699 5.64628 14.0025 5.03516 13.5352V11.6875C5.64865 12.1524 6.25977 12.6197 6.8733 13.0847C6.8733 13.703 6.8733 14.3189 6.8733 14.9372Z" fill="#53565A"/>
<path d="M5.03737 20.0309C4.42624 19.5636 3.81033 19.0963 3.19922 18.629V16.7812C3.81273 17.2462 4.42384 17.7135 5.03737 18.1784C5.03737 18.7967 5.03737 19.4126 5.03737 20.0309Z" fill="#53565A"/>
<path d="M8.71314 20.0309C8.10202 19.5636 7.48612 19.0963 6.875 18.629V16.7812C7.48852 17.2462 8.09962 17.7135 8.71314 18.1784C8.71314 18.7967 8.71314 19.4126 8.71314 20.0309Z" fill="#53565A"/>
</g>
<defs>
<clipPath id="clip0_16_78">
<rect width="46.642" height="9.77526" fill="white" transform="translate(1.35938 10.2812)"/>
</clipPath>
</defs>
</svg>
