<svg width="53" height="53" viewBox="0 0 53 53" fill="none" xmlns="http://www.w3.org/2000/svg">
<g clip-path="url(#clip0_33_107)">
<path d="M34.7474 27.8735H18.2521V29.7063H34.7474V27.8735Z" fill="black"/>
<path d="M34.7474 23.8079H18.2521V25.6406H34.7474V23.8079Z" fill="black"/>
<path d="M26.4993 0.00012207C11.8643 0.00012207 0 11.865 0 26.4999C0 41.1349 11.8643 52.9996 26.4993 52.9996C41.1343 52.9996 53 41.1344 53 26.4999C52.9998 11.8644 41.1343 0.00012207 26.4993 0.00012207ZM32.8051 11.4062L38.3731 16.471H32.8051V11.4062ZM35.1537 41.5929H17.8461C16.0674 41.5929 14.6263 40.1514 14.6263 38.3731V14.6263C14.6263 12.8479 16.0678 11.4065 17.8461 11.4065H31.4299V17.846H38.3726V34.1723H31.8355H30.0028V36.0049H18.2523V37.8376H30.003V38.8874V40.7201H31.8355H37.3527C36.7768 41.2602 36.0047 41.5929 35.1537 41.5929ZM40.6368 38.8874H31.8355V36.0049H40.6368V38.8874V38.8874Z" fill="black"/>
<path d="M34.7474 19.7418H18.2521V21.5746H34.7474V19.7418Z" fill="black"/>
<path d="M34.7474 31.9392H18.2521V33.772H34.7474V31.9392Z" fill="black"/>
</g>
<defs>
<clipPath id="clip0_33_107">
<rect width="53" height="53" fill="white"/>
</clipPath>
</defs>
</svg>
