<svg width="53" height="35" viewBox="0 0 53 35" fill="none" xmlns="http://www.w3.org/2000/svg">
<path d="M13.9511 8.49594C17.6288 11.0639 21.5544 13.0539 25.5818 14.9599C32.3788 12.4409 38.4989 9.07394 44.6248 5.55194C46.928 4.22694 49.242 2.88794 51.5874 1.55894C48.6709 -0.972059 40.1457 0.339942 37.721 0.339942C30.7761 0.349942 23.8331 0.339941 16.8784 0.329941C14.87 0.207941 12.7735 0.155942 10.8151 0.339942H8.71469C7.30788 0.346942 5.36615 0.222942 3.81042 0.747941C5.99805 2.16894 7.99071 3.82794 10.0079 5.46694C11.2912 6.50894 12.5864 7.54194 13.9511 8.49594Z" fill="black"/>
<path d="M11.1737 10.201C7.91137 7.78395 4.98213 5.01395 1.51407 2.90295C0.909612 4.56695 1.2378 6.77795 1.03207 8.32495C1.02325 8.38595 1.04285 8.43695 1.04285 8.48795C0.412915 11.232 0.412915 14.24 0.342378 16.892C0.270862 19.462 -0.258165 23.163 0.158199 26.36C0.119991 27.899 0.105296 29.515 0.435448 30.868C6.90818 25.657 13.7894 20.483 20.7265 15.966C17.4103 14.285 14.2097 12.45 11.1737 10.201Z" fill="black"/>
<path d="M52.7885 10.8539C52.8982 8.76288 53.1794 6.47088 52.8316 4.34888C46.3344 8.02988 40.1056 11.8009 33.4271 14.9419C37.2312 18.1879 41.1098 21.2939 44.9178 24.4969C46.5254 25.8489 48.1194 27.2219 49.6898 28.6299C50.259 29.1389 50.8213 29.6569 51.3827 30.1779C51.5551 29.8299 51.7138 29.4649 51.8382 29.0579C52.5387 26.8069 52.2565 24.1139 52.0841 21.6139C52.1067 21.0649 52.1321 20.5129 52.1576 19.9589C52.3506 16.9259 52.6327 13.9019 52.7885 10.8539Z" fill="black"/>
<path d="M30.4282 16.2839C28.9509 16.9189 27.4549 17.5329 25.9148 18.0919C25.3476 18.2979 24.8823 18.1539 24.5629 17.8379C24.3238 17.7249 24.0848 17.6089 23.8467 17.4949C23.7546 17.5939 23.6537 17.6869 23.5264 17.7679C16.2033 22.4419 8.8753 27.9289 2.06555 33.4269C2.6612 33.8149 3.4322 34.0499 4.44323 34.0619C8.89587 34.1169 13.3563 34.0829 17.8158 34.0399C25.5259 34.2519 33.2497 34.0959 40.9578 34.2809C43.937 34.3499 47.1876 34.1469 49.4399 32.5049C43.408 26.9009 36.9372 21.9519 30.7035 16.5939C30.5889 16.4959 30.5037 16.3909 30.4282 16.2839Z" fill="black"/>
</svg>
