<svg width="53" height="50" viewBox="0 0 53 50" fill="none" xmlns="http://www.w3.org/2000/svg">
<path d="M52.1104 22.3028L44.078 14.2704V4.99163C44.078 3.31389 42.7184 1.95422 41.0382 1.95422C39.3619 1.95422 38.0023 3.31389 38.0023 4.99163V8.19485L32.0215 2.21388C29.0646 -0.741469 23.9234 -0.736227 20.9732 2.21923L0.889203 22.3028C-0.296401 23.4908 -0.296401 25.413 0.889203 26.5991C2.07534 27.7867 4.00128 27.7867 5.18699 26.5991L25.2691 6.51498C25.9233 5.86419 27.0764 5.86419 27.7272 6.51306L47.8127 26.5991C48.4083 27.193 49.1848 27.4884 49.9611 27.4884C50.7389 27.4884 51.5167 27.1927 52.1105 26.5991C53.2965 25.4131 53.2965 23.4909 52.1104 22.3028Z" fill="black"/>
<path d="M27.5551 12.2807C26.9716 11.6975 26.0268 11.6975 25.445 12.2807L7.77907 29.9414C7.50016 30.2202 7.34204 30.6009 7.34204 30.9981V43.8792C7.34204 46.9018 9.79285 49.3525 12.8154 49.3525H21.5618V35.8072H31.4364V49.3525H40.1829C43.2053 49.3525 45.6561 46.9018 45.6561 43.8793V30.9981C45.6561 30.6009 45.4994 30.2202 45.2191 29.9414L27.5551 12.2807Z" fill="black"/>
</svg>
