<svg width="80" height="60" viewBox="0 0 80 60" fill="none" xmlns="http://www.w3.org/2000/svg">
<path fill-rule="evenodd" clip-rule="evenodd" d="M3.77163 0.0929486C2.3642 0.435924 1.06869 1.49459 0.40512 2.84411C-0.123353 3.9189 -0.136972 5.93793 0.3771 6.99723C0.9134 8.10207 1.54973 8.76846 2.62499 9.35156L3.6151 9.88833H40.0103H76.4054L77.2048 9.46646C78.3906 8.84094 78.8776 8.36929 79.4681 7.2743C79.9538 6.37358 80 6.17258 80 4.95738C80 3.74123 79.954 3.54164 79.466 2.6367C78.8897 1.56785 78.2314 0.936064 77.1147 0.379727L76.4054 0.0264194L40.3233 0.00246901C20.4782 -0.0106802 4.02992 0.0300202 3.77163 0.0929486ZM3.77163 25.1391C2.3642 25.4821 1.06869 26.5407 0.40512 27.8902C-0.123353 28.965 -0.136972 30.9841 0.3771 32.0434C0.9134 33.1482 1.54973 33.8146 2.62499 34.3977L3.6151 34.9345H40.0103H76.4054L77.2048 34.5126C78.3906 33.8871 78.8776 33.4154 79.4681 32.3204C79.9538 31.4197 80 31.2187 80 30.0035C80 28.7874 79.954 28.5878 79.466 27.6828C78.8897 26.614 78.2314 25.9822 77.1147 25.4259L76.4054 25.0725L40.3233 25.0486C20.4782 25.0354 4.02992 25.0762 3.77163 25.1391ZM3.77163 50.1852C2.3642 50.5282 1.06869 51.5868 0.40512 52.9364C-0.123353 54.0112 -0.136972 56.0302 0.3771 57.0895C0.9134 58.1943 1.54973 58.8607 2.62499 59.4438L3.6151 59.9806H40.0103H76.4054L77.2048 59.5587C78.3906 58.9332 78.8776 58.4615 79.4681 57.3666C79.9538 56.4658 80 56.2648 80 55.0496C80 53.8335 79.954 53.6339 79.466 52.729C78.8897 51.6601 78.2314 51.0283 77.1147 50.472L76.4054 50.1187L40.3233 50.0947C20.4782 50.0816 4.02992 50.1223 3.77163 50.1852Z" fill="black"/>
</svg>
