<svg width="49" height="47" viewBox="0 0 49 47" fill="none" xmlns="http://www.w3.org/2000/svg">
<path d="M38.7831 28.2853C38.7831 28.9623 38.2102 29.5113 37.5033 29.5113H32.1397C31.433 29.5113 30.8599 28.9624 30.8599 28.2853V25.9463H17.3388V28.2853C17.3388 28.9623 16.7658 29.5113 16.0589 29.5113H10.6954C9.98858 29.5113 9.41552 28.9624 9.41552 28.2853V25.9463H2.58191V44.2358C2.58191 45.3898 3.55844 46.3252 4.76305 46.3252H43.4356C44.6402 46.3252 45.6167 45.3898 45.6167 44.2358V25.9463H38.7831V28.2853Z" fill="black"/>
<path d="M46.0178 8.69666H33.4781V2.02677C33.4781 0.907486 32.5309 0 31.3624 0H16.8365C15.668 0 14.7208 0.907486 14.7208 2.02677V8.69666H2.18115C0.976533 8.69666 0 9.63212 0 10.7861V22.4389H9.4158V20.1573C9.4158 19.4803 9.98875 18.9314 10.6956 18.9314H16.0592C16.766 18.9314 17.339 19.4803 17.339 20.1573V22.4389H30.8603V20.1573C30.8603 19.4803 31.4332 18.9314 32.1401 18.9314H37.5037C38.2105 18.9314 38.7835 19.4803 38.7835 20.1573V22.4389H48.1992V10.7861C48.199 9.63212 47.2225 8.69666 46.0178 8.69666ZM18.9523 4.05354H29.2466V8.69666H18.9523V4.05354V4.05354Z" fill="black"/>
</svg>
