<svg width="53" height="53" viewBox="0 0 53 53" fill="none" xmlns="http://www.w3.org/2000/svg">
<g clip-path="url(#clip0_32_64)">
<path d="M26.5 25.6851C33.408 25.6851 39.008 20.0851 39.008 13.1771C39.008 6.26914 33.408 0.669128 26.5 0.669128C19.5921 0.669128 13.9921 6.26914 13.9921 13.1771C13.9921 20.0851 19.5921 25.6851 26.5 25.6851Z" fill="black"/>
<path d="M41.3804 27.6212C41.1831 27.4872 40.7864 27.2295 40.7864 27.2295C37.5891 31.6685 32.3765 34.5638 26.5001 34.5638C20.623 34.5638 15.4099 31.6678 12.2127 27.228C12.2127 27.228 11.8792 27.4463 11.7136 27.5579C4.64761 32.3173 0 40.3921 0 49.5522V52.331H53V49.5522C53 40.4327 48.3935 32.3891 41.3804 27.6212Z" fill="black"/>
</g>
<defs>
<clipPath id="clip0_32_64">
<rect width="53" height="53" fill="white"/>
</clipPath>
</defs>
</svg>
