<svg width="22" height="22" viewBox="0 0 22 22" fill="none" xmlns="http://www.w3.org/2000/svg">
<path d="M17.4166 1.83333C17.4166 0.821333 16.5953 0 15.5833 0H6.41665C5.40465 0 4.58331 0.821333 4.58331 1.83333V20.1667C4.58331 21.1787 5.40465 22 6.41665 22H15.5833C16.5953 22 17.4166 21.1787 17.4166 20.1667V1.83333ZM9.62498 1.83333H12.375C12.628 1.83333 12.8333 2.03867 12.8333 2.29167C12.8333 2.54467 12.628 2.75 12.375 2.75H9.62498C9.37198 2.75 9.16665 2.54467 9.16665 2.29167C9.16665 2.03867 9.37198 1.83333 9.62498 1.83333ZM11 20.1667C10.4931 20.1667 10.0833 19.756 10.0833 19.25C10.0833 18.744 10.4931 18.3333 11 18.3333C11.506 18.3333 11.9157 18.744 11.9157 19.25C11.9157 19.756 11.506 20.1667 11 20.1667ZM15.5833 17.4167H6.41665V4.56133H15.5833V17.4167Z" fill="black"/>
</svg>
